# xmcd
#
# Track frame offsets:
#   150
#   2944
#   20185
#   38463
#   56355
#   74625
#   93173
#   95246
#   114537
#   132474
#   148744
#   166217
#   183827
#   189995
#   211298
#   214108
#   228783
#
# Disc length: 3325 seconds
#
# Revision: 0
# Processed by: cddbd v1.5.1PL0 Copyright (c) Steve Scherf et al.
# Submitted via: GXTranscoder 2.0.1939
#
DISCID=ef0cfb11
DTITLE=angie stone - stone love
DYEAR=2004
DGENRE=R and B
TTITLE0=Stoned love (intro)
TTITLE1=I wanna thank ya
TTITLE2=My man
TTITLE3=U-haul
TTITLE4=Stay for a while
TTITLE5=Lovers' ghetto
TTITLE6=Little bit of this, little bit of that...
TTITLE7=You're gonna get it
TTITLE8=Come home (live with me)
TTITLE9=You don't love me
TTITLE10=Remy red
TTITLE11=That kind of love
TTITLE12=Thoug it (interlude)
TTITLE13=Cinderella bollin'
TTITLE14=Karma (t.h.c)
TTITLE15=Wherever you are (outro)
TTITLE16=I wanna thank ya (no rap)
EXTD=
EXTT0=
EXTT1=
EXTT2=
EXTT3=
EXTT4=
EXTT5=
EXTT6=
EXTT7=
EXTT8=
EXTT9=
EXTT10=
EXTT11=
EXTT12=
EXTT13=
EXTT14=
EXTT15=
EXTT16=
PLAYORDER=
